<mxfile host="app.diagrams.net" modified="2023-04-12T11:09:18.637Z" agent="Mozilla/5.0 (Windows NT 10.0; Win64; x64) AppleWebKit/537.36 (KHTML, like Gecko) Chrome/114.0.0.0 Safari/537.36" etag="1ph1ionOk608LXB4XBRi" version="21.1.5" type="device">
  <diagram name="Page-1" id="NTZvAj1o065aLn9AzlJM">
    <mxGraphModel dx="1730" dy="452" grid="1" gridSize="10" guides="1" tooltips="1" connect="1" arrows="1" fold="1" page="1" pageScale="1" pageWidth="850" pageHeight="1100" math="0" shadow="0">
      <root>
        <mxCell id="0" />
        <mxCell id="1" parent="0" />
        <mxCell id="zSdqmAYmBV2nvxC4BP9r-52" value="" style="edgeStyle=orthogonalEdgeStyle;rounded=0;orthogonalLoop=1;jettySize=auto;html=1;" edge="1" parent="1" source="zSdqmAYmBV2nvxC4BP9r-2" target="zSdqmAYmBV2nvxC4BP9r-3">
          <mxGeometry relative="1" as="geometry" />
        </mxCell>
        <mxCell id="zSdqmAYmBV2nvxC4BP9r-2" value="Prepare&lt;br&gt;&amp;nbsp;Requisition" style="rounded=1;whiteSpace=wrap;html=1;" vertex="1" parent="1">
          <mxGeometry x="-20" y="40" width="120" height="60" as="geometry" />
        </mxCell>
        <mxCell id="zSdqmAYmBV2nvxC4BP9r-3" value="Prepare request&amp;nbsp;&lt;br&gt;for quote" style="shape=tape;whiteSpace=wrap;html=1;" vertex="1" parent="1">
          <mxGeometry x="160" y="20" width="120" height="100" as="geometry" />
        </mxCell>
        <mxCell id="zSdqmAYmBV2nvxC4BP9r-6" value="" style="edgeStyle=orthogonalEdgeStyle;rounded=0;orthogonalLoop=1;jettySize=auto;html=1;" edge="1" parent="1" source="zSdqmAYmBV2nvxC4BP9r-4" target="zSdqmAYmBV2nvxC4BP9r-5">
          <mxGeometry relative="1" as="geometry" />
        </mxCell>
        <mxCell id="zSdqmAYmBV2nvxC4BP9r-4" value="Needs&amp;nbsp;&lt;br&gt;Review?" style="rhombus;whiteSpace=wrap;html=1;" vertex="1" parent="1">
          <mxGeometry x="150" y="150" width="80" height="80" as="geometry" />
        </mxCell>
        <mxCell id="zSdqmAYmBV2nvxC4BP9r-8" value="" style="edgeStyle=orthogonalEdgeStyle;rounded=0;orthogonalLoop=1;jettySize=auto;html=1;" edge="1" parent="1" source="zSdqmAYmBV2nvxC4BP9r-5" target="zSdqmAYmBV2nvxC4BP9r-7">
          <mxGeometry relative="1" as="geometry" />
        </mxCell>
        <mxCell id="zSdqmAYmBV2nvxC4BP9r-5" value="Evaluation RFQ" style="whiteSpace=wrap;html=1;" vertex="1" parent="1">
          <mxGeometry x="340" y="160" width="120" height="60" as="geometry" />
        </mxCell>
        <mxCell id="zSdqmAYmBV2nvxC4BP9r-13" value="" style="edgeStyle=orthogonalEdgeStyle;rounded=0;orthogonalLoop=1;jettySize=auto;html=1;" edge="1" parent="1" source="zSdqmAYmBV2nvxC4BP9r-7" target="zSdqmAYmBV2nvxC4BP9r-12">
          <mxGeometry relative="1" as="geometry" />
        </mxCell>
        <mxCell id="zSdqmAYmBV2nvxC4BP9r-23" style="edgeStyle=orthogonalEdgeStyle;rounded=0;orthogonalLoop=1;jettySize=auto;html=1;" edge="1" parent="1" source="zSdqmAYmBV2nvxC4BP9r-7">
          <mxGeometry relative="1" as="geometry">
            <mxPoint x="40" y="100" as="targetPoint" />
          </mxGeometry>
        </mxCell>
        <mxCell id="zSdqmAYmBV2nvxC4BP9r-7" value="Approved?" style="shape=document;whiteSpace=wrap;html=1;boundedLbl=1;" vertex="1" parent="1">
          <mxGeometry x="240" y="285" width="120" height="40" as="geometry" />
        </mxCell>
        <mxCell id="zSdqmAYmBV2nvxC4BP9r-9" value="" style="endArrow=none;dashed=1;html=1;rounded=0;exitX=0.5;exitY=1;exitDx=0;exitDy=0;" edge="1" parent="1" source="zSdqmAYmBV2nvxC4BP9r-4">
          <mxGeometry width="50" height="50" relative="1" as="geometry">
            <mxPoint x="240" y="240" as="sourcePoint" />
            <mxPoint x="190" y="260" as="targetPoint" />
          </mxGeometry>
        </mxCell>
        <mxCell id="zSdqmAYmBV2nvxC4BP9r-10" value="" style="endArrow=none;dashed=1;html=1;dashPattern=1 3;strokeWidth=2;rounded=0;" edge="1" parent="1">
          <mxGeometry width="50" height="50" relative="1" as="geometry">
            <mxPoint x="190" y="260" as="sourcePoint" />
            <mxPoint x="502" y="260" as="targetPoint" />
          </mxGeometry>
        </mxCell>
        <mxCell id="zSdqmAYmBV2nvxC4BP9r-11" value="" style="endArrow=classic;html=1;rounded=0;" edge="1" parent="1">
          <mxGeometry width="50" height="50" relative="1" as="geometry">
            <mxPoint x="500" y="260" as="sourcePoint" />
            <mxPoint x="500" y="290" as="targetPoint" />
          </mxGeometry>
        </mxCell>
        <mxCell id="zSdqmAYmBV2nvxC4BP9r-18" value="" style="edgeStyle=orthogonalEdgeStyle;rounded=0;orthogonalLoop=1;jettySize=auto;html=1;" edge="1" parent="1" source="zSdqmAYmBV2nvxC4BP9r-12" target="zSdqmAYmBV2nvxC4BP9r-17">
          <mxGeometry relative="1" as="geometry" />
        </mxCell>
        <mxCell id="zSdqmAYmBV2nvxC4BP9r-12" value="Review RFQ" style="rounded=0;whiteSpace=wrap;html=1;" vertex="1" parent="1">
          <mxGeometry x="450" y="290" width="120" height="30" as="geometry" />
        </mxCell>
        <mxCell id="zSdqmAYmBV2nvxC4BP9r-14" value="Yes&lt;br&gt;" style="text;html=1;align=center;verticalAlign=middle;resizable=0;points=[];autosize=1;strokeColor=none;fillColor=none;" vertex="1" parent="1">
          <mxGeometry x="380" y="275" width="40" height="30" as="geometry" />
        </mxCell>
        <mxCell id="zSdqmAYmBV2nvxC4BP9r-15" value="yes" style="text;html=1;align=center;verticalAlign=middle;resizable=0;points=[];autosize=1;strokeColor=none;fillColor=none;" vertex="1" parent="1">
          <mxGeometry x="250" y="160" width="40" height="30" as="geometry" />
        </mxCell>
        <mxCell id="zSdqmAYmBV2nvxC4BP9r-16" value="No&lt;br&gt;" style="text;html=1;align=center;verticalAlign=middle;resizable=0;points=[];autosize=1;strokeColor=none;fillColor=none;" vertex="1" parent="1">
          <mxGeometry x="190" y="230" width="40" height="30" as="geometry" />
        </mxCell>
        <mxCell id="zSdqmAYmBV2nvxC4BP9r-20" value="" style="edgeStyle=orthogonalEdgeStyle;rounded=0;orthogonalLoop=1;jettySize=auto;html=1;" edge="1" parent="1" source="zSdqmAYmBV2nvxC4BP9r-17" target="zSdqmAYmBV2nvxC4BP9r-19">
          <mxGeometry relative="1" as="geometry" />
        </mxCell>
        <mxCell id="zSdqmAYmBV2nvxC4BP9r-22" style="edgeStyle=orthogonalEdgeStyle;rounded=0;orthogonalLoop=1;jettySize=auto;html=1;entryX=0.5;entryY=1;entryDx=0;entryDy=0;" edge="1" parent="1" source="zSdqmAYmBV2nvxC4BP9r-17" target="zSdqmAYmBV2nvxC4BP9r-2">
          <mxGeometry relative="1" as="geometry">
            <mxPoint x="41" y="170" as="targetPoint" />
          </mxGeometry>
        </mxCell>
        <mxCell id="zSdqmAYmBV2nvxC4BP9r-17" value="Decided to quote?" style="shape=parallelogram;perimeter=parallelogramPerimeter;whiteSpace=wrap;html=1;fixedSize=1;rounded=0;" vertex="1" parent="1">
          <mxGeometry x="450" y="350" width="120" height="40" as="geometry" />
        </mxCell>
        <mxCell id="zSdqmAYmBV2nvxC4BP9r-26" style="edgeStyle=orthogonalEdgeStyle;rounded=0;orthogonalLoop=1;jettySize=auto;html=1;" edge="1" parent="1" source="zSdqmAYmBV2nvxC4BP9r-19" target="zSdqmAYmBV2nvxC4BP9r-27">
          <mxGeometry relative="1" as="geometry">
            <mxPoint x="250" y="480" as="targetPoint" />
          </mxGeometry>
        </mxCell>
        <mxCell id="zSdqmAYmBV2nvxC4BP9r-19" value="Review quote" style="shape=parallelogram;perimeter=parallelogramPerimeter;whiteSpace=wrap;html=1;fixedSize=1;rounded=0;" vertex="1" parent="1">
          <mxGeometry x="450" y="465" width="120" height="30" as="geometry" />
        </mxCell>
        <mxCell id="zSdqmAYmBV2nvxC4BP9r-21" value="Yes" style="text;html=1;align=center;verticalAlign=middle;resizable=0;points=[];autosize=1;strokeColor=none;fillColor=none;" vertex="1" parent="1">
          <mxGeometry x="510" y="405" width="40" height="30" as="geometry" />
        </mxCell>
        <mxCell id="zSdqmAYmBV2nvxC4BP9r-24" value="No" style="text;html=1;align=center;verticalAlign=middle;resizable=0;points=[];autosize=1;strokeColor=none;fillColor=none;" vertex="1" parent="1">
          <mxGeometry x="100" y="275" width="40" height="30" as="geometry" />
        </mxCell>
        <mxCell id="zSdqmAYmBV2nvxC4BP9r-25" value="No" style="text;html=1;align=center;verticalAlign=middle;resizable=0;points=[];autosize=1;strokeColor=none;fillColor=none;" vertex="1" parent="1">
          <mxGeometry x="100" y="345" width="40" height="30" as="geometry" />
        </mxCell>
        <mxCell id="zSdqmAYmBV2nvxC4BP9r-29" value="" style="edgeStyle=orthogonalEdgeStyle;rounded=0;orthogonalLoop=1;jettySize=auto;html=1;" edge="1" parent="1" source="zSdqmAYmBV2nvxC4BP9r-27" target="zSdqmAYmBV2nvxC4BP9r-28">
          <mxGeometry relative="1" as="geometry" />
        </mxCell>
        <mxCell id="zSdqmAYmBV2nvxC4BP9r-27" value="Review Quote" style="rounded=0;whiteSpace=wrap;html=1;" vertex="1" parent="1">
          <mxGeometry x="190" y="450" width="120" height="60" as="geometry" />
        </mxCell>
        <mxCell id="zSdqmAYmBV2nvxC4BP9r-31" value="" style="edgeStyle=orthogonalEdgeStyle;rounded=0;orthogonalLoop=1;jettySize=auto;html=1;" edge="1" parent="1" source="zSdqmAYmBV2nvxC4BP9r-28" target="zSdqmAYmBV2nvxC4BP9r-30">
          <mxGeometry relative="1" as="geometry" />
        </mxCell>
        <mxCell id="zSdqmAYmBV2nvxC4BP9r-33" style="edgeStyle=orthogonalEdgeStyle;rounded=0;orthogonalLoop=1;jettySize=auto;html=1;entryX=0.25;entryY=1;entryDx=0;entryDy=0;" edge="1" parent="1" source="zSdqmAYmBV2nvxC4BP9r-28" target="zSdqmAYmBV2nvxC4BP9r-19">
          <mxGeometry relative="1" as="geometry" />
        </mxCell>
        <mxCell id="zSdqmAYmBV2nvxC4BP9r-28" value="Quote&lt;br&gt;Acceptable?" style="triangle;whiteSpace=wrap;html=1;rounded=0;" vertex="1" parent="1">
          <mxGeometry x="190" y="600" width="120" height="90" as="geometry" />
        </mxCell>
        <mxCell id="zSdqmAYmBV2nvxC4BP9r-36" value="" style="edgeStyle=orthogonalEdgeStyle;rounded=0;orthogonalLoop=1;jettySize=auto;html=1;" edge="1" parent="1" source="zSdqmAYmBV2nvxC4BP9r-30" target="zSdqmAYmBV2nvxC4BP9r-35">
          <mxGeometry relative="1" as="geometry" />
        </mxCell>
        <mxCell id="zSdqmAYmBV2nvxC4BP9r-30" value="Prepare Order" style="whiteSpace=wrap;html=1;rounded=0;" vertex="1" parent="1">
          <mxGeometry x="190" y="740" width="120" height="60" as="geometry" />
        </mxCell>
        <mxCell id="zSdqmAYmBV2nvxC4BP9r-32" value="Yes" style="text;html=1;align=center;verticalAlign=middle;resizable=0;points=[];autosize=1;strokeColor=none;fillColor=none;" vertex="1" parent="1">
          <mxGeometry x="250" y="680" width="40" height="30" as="geometry" />
        </mxCell>
        <mxCell id="zSdqmAYmBV2nvxC4BP9r-34" value="No, Send quote response" style="text;html=1;align=center;verticalAlign=middle;resizable=0;points=[];autosize=1;strokeColor=none;fillColor=none;" vertex="1" parent="1">
          <mxGeometry x="300" y="615" width="160" height="30" as="geometry" />
        </mxCell>
        <mxCell id="zSdqmAYmBV2nvxC4BP9r-39" value="" style="edgeStyle=orthogonalEdgeStyle;rounded=0;orthogonalLoop=1;jettySize=auto;html=1;" edge="1" parent="1" source="zSdqmAYmBV2nvxC4BP9r-35" target="zSdqmAYmBV2nvxC4BP9r-38">
          <mxGeometry relative="1" as="geometry" />
        </mxCell>
        <mxCell id="zSdqmAYmBV2nvxC4BP9r-35" value="Review Order" style="whiteSpace=wrap;html=1;rounded=0;" vertex="1" parent="1">
          <mxGeometry x="390" y="740" width="120" height="60" as="geometry" />
        </mxCell>
        <mxCell id="zSdqmAYmBV2nvxC4BP9r-37" value="Order" style="text;html=1;align=center;verticalAlign=middle;resizable=0;points=[];autosize=1;strokeColor=none;fillColor=none;" vertex="1" parent="1">
          <mxGeometry x="320" y="740" width="50" height="30" as="geometry" />
        </mxCell>
        <mxCell id="zSdqmAYmBV2nvxC4BP9r-40" style="edgeStyle=orthogonalEdgeStyle;rounded=0;orthogonalLoop=1;jettySize=auto;html=1;entryX=0;entryY=0.5;entryDx=0;entryDy=0;" edge="1" parent="1" source="zSdqmAYmBV2nvxC4BP9r-38" target="zSdqmAYmBV2nvxC4BP9r-27">
          <mxGeometry relative="1" as="geometry">
            <mxPoint x="90" y="470" as="targetPoint" />
          </mxGeometry>
        </mxCell>
        <mxCell id="zSdqmAYmBV2nvxC4BP9r-43" value="" style="edgeStyle=orthogonalEdgeStyle;rounded=0;orthogonalLoop=1;jettySize=auto;html=1;" edge="1" parent="1" source="zSdqmAYmBV2nvxC4BP9r-38" target="zSdqmAYmBV2nvxC4BP9r-42">
          <mxGeometry relative="1" as="geometry" />
        </mxCell>
        <mxCell id="zSdqmAYmBV2nvxC4BP9r-38" value="Order acceptable?&amp;nbsp;" style="shape=parallelogram;perimeter=parallelogramPerimeter;whiteSpace=wrap;html=1;fixedSize=1;rounded=0;" vertex="1" parent="1">
          <mxGeometry x="390" y="830" width="120" height="60" as="geometry" />
        </mxCell>
        <mxCell id="zSdqmAYmBV2nvxC4BP9r-41" value="No, send revised quote" style="text;html=1;align=center;verticalAlign=middle;resizable=0;points=[];autosize=1;strokeColor=none;fillColor=none;" vertex="1" parent="1">
          <mxGeometry x="205" y="825" width="150" height="30" as="geometry" />
        </mxCell>
        <mxCell id="zSdqmAYmBV2nvxC4BP9r-47" value="" style="edgeStyle=orthogonalEdgeStyle;rounded=0;orthogonalLoop=1;jettySize=auto;html=1;" edge="1" parent="1" source="zSdqmAYmBV2nvxC4BP9r-42" target="zSdqmAYmBV2nvxC4BP9r-46">
          <mxGeometry relative="1" as="geometry" />
        </mxCell>
        <mxCell id="zSdqmAYmBV2nvxC4BP9r-42" value="Fulfill Order" style="whiteSpace=wrap;html=1;rounded=0;" vertex="1" parent="1">
          <mxGeometry x="390" y="930" width="120" height="60" as="geometry" />
        </mxCell>
        <mxCell id="zSdqmAYmBV2nvxC4BP9r-49" value="" style="edgeStyle=orthogonalEdgeStyle;rounded=0;orthogonalLoop=1;jettySize=auto;html=1;" edge="1" parent="1" source="zSdqmAYmBV2nvxC4BP9r-46" target="zSdqmAYmBV2nvxC4BP9r-48">
          <mxGeometry relative="1" as="geometry" />
        </mxCell>
        <mxCell id="zSdqmAYmBV2nvxC4BP9r-46" value="Received Ordered&amp;nbsp;&lt;br&gt;Items" style="whiteSpace=wrap;html=1;rounded=0;" vertex="1" parent="1">
          <mxGeometry x="590" y="930" width="120" height="60" as="geometry" />
        </mxCell>
        <mxCell id="zSdqmAYmBV2nvxC4BP9r-51" value="" style="edgeStyle=orthogonalEdgeStyle;rounded=0;orthogonalLoop=1;jettySize=auto;html=1;" edge="1" parent="1" source="zSdqmAYmBV2nvxC4BP9r-48" target="zSdqmAYmBV2nvxC4BP9r-50">
          <mxGeometry relative="1" as="geometry" />
        </mxCell>
        <mxCell id="zSdqmAYmBV2nvxC4BP9r-48" value="Make Payments" style="whiteSpace=wrap;html=1;rounded=0;" vertex="1" parent="1">
          <mxGeometry x="590" y="1070" width="120" height="60" as="geometry" />
        </mxCell>
        <mxCell id="zSdqmAYmBV2nvxC4BP9r-50" value="Receive payments" style="whiteSpace=wrap;html=1;rounded=0;" vertex="1" parent="1">
          <mxGeometry x="390" y="1070" width="120" height="60" as="geometry" />
        </mxCell>
        <mxCell id="zSdqmAYmBV2nvxC4BP9r-55" value="" style="endArrow=classic;html=1;rounded=0;entryX=0.5;entryY=0;entryDx=0;entryDy=0;exitX=0.25;exitY=1;exitDx=0;exitDy=0;exitPerimeter=0;" edge="1" parent="1" source="zSdqmAYmBV2nvxC4BP9r-3" target="zSdqmAYmBV2nvxC4BP9r-4">
          <mxGeometry width="50" height="50" relative="1" as="geometry">
            <mxPoint x="490" y="270" as="sourcePoint" />
            <mxPoint x="540" y="220" as="targetPoint" />
          </mxGeometry>
        </mxCell>
      </root>
    </mxGraphModel>
  </diagram>
</mxfile>
